<svg xmlns="http://www.w3.org/2000/svg" xml:space="preserve" viewBox="0 0 128.5 128.5"><circle cx="64.25" cy="64.25" r="64.25" fill="#ef8d6f"/><path fill="#f2f2f2" d="M87.805 28.975h.618c7.083 0 12.878 5.795 12.878 12.879v48.345c0 7.083-5.796 12.879-12.878 12.879h-.618V47.287a4.896 4.896 0 1 0 0-9.791v-8.521zm-47.109 0h47.109v8.521h-.001a4.896 4.896 0 0 0 0 9.791h.001v55.791H40.696V47.287a4.897 4.897 0 0 0 0-9.791v-8.521zm-.617 0h.617v8.521a4.896 4.896 0 1 0 0 9.791v55.791h-.617c-7.084 0-12.88-5.797-12.88-12.879V41.854c0-7.084 5.796-12.879 12.88-12.879z"/><path fill="#afafaf" d="M40.696 25.422c1.046 0 1.902.856 1.902 1.902v13.165a1.908 1.908 0 0 1-1.902 1.902h-.001a1.907 1.907 0 0 1-1.902-1.902V27.324a1.91 1.91 0 0 1 1.903-1.902zM87.805 25.422c1.047 0 1.902.856 1.902 1.902v13.165a1.907 1.907 0 0 1-1.902 1.902h-.001a1.908 1.908 0 0 1-1.903-1.902V27.324a1.91 1.91 0 0 1 1.904-1.902z"/><path fill="#fabb18" d="M27.199 50.675h74.102v3.107H27.199z"/><path fill="#efcb6c" d="M53.236 59.304h9.584v8.453h-9.584z"/><path fill="#c9675b" d="M38.199 58.954h9.584v8.453h-9.584z"/><path fill="#efcb6c" d="M68.727 59.304h9.584v8.453h-9.584zM83.088 59.304h9.584v8.453h-9.584zM53.586 72.996h9.584v8.453h-9.584zM69.077 72.996h9.584v8.453h-9.584zM83.088 73.346h9.584v8.453h-9.584zM53.586 87.327h9.584v8.439h-9.584zM38.373 72.996h9.584v8.453h-9.584zM38.373 87.327h9.584v8.439h-9.584zM68.727 87.677h9.584v8.439h-9.584zM83.088 87.677h9.584v8.439h-9.584z"/></svg>